<svg width="720" height="480" viewBox="0 0 720 480" fill="none" xmlns="http://www.w3.org/2000/svg">
  <rect width="720" height="480" rx="32" fill="#EDF6FF"/>
  <rect x="58" y="68" width="604" height="344" rx="28" fill="#FFFFFF"/>
  <rect x="100" y="122" width="206" height="234" rx="24" fill="#F3F8FD"/>
  <rect x="132" y="164" width="144" height="96" rx="20" fill="#CFE7F8"/>
  <rect x="126" y="252" width="156" height="28" rx="14" fill="#0B4F8A" fill-opacity="0.16"/>
  <rect x="116" y="274" width="14" height="56" rx="7" fill="#0B4F8A"/>
  <rect x="284" y="274" width="14" height="56" rx="7" fill="#0B4F8A"/>
  <rect x="354" y="122" width="266" height="234" rx="24" fill="#E6F4F6"/>
  <rect x="388" y="156" width="90" height="84" rx="18" fill="#FFFFFF"/>
  <path d="M434 172C434 167.582 437.582 164 442 164H450C454.418 164 458 167.582 458 172V186H472C476.418 186 480 189.582 480 194V202C480 206.418 476.418 210 472 210H458V224C458 228.418 454.418 232 450 232H442C437.582 232 434 228.418 434 224V210H420C415.582 210 412 206.418 412 202V194C412 189.582 415.582 186 420 186H434V172Z" fill="#11979A"/>
  <rect x="506" y="162" width="80" height="14" rx="7" fill="#0B4F8A" fill-opacity="0.18"/>
  <rect x="506" y="188" width="64" height="12" rx="6" fill="#0B4F8A" fill-opacity="0.12"/>
  <rect x="388" y="284" width="198" height="18" rx="9" fill="#FFFFFF" fill-opacity="0.92"/>
  <rect x="388" y="312" width="152" height="14" rx="7" fill="#FFFFFF" fill-opacity="0.72"/>
</svg>
