<svg width="960" height="760" viewBox="0 0 960 760" fill="none" xmlns="http://www.w3.org/2000/svg">
  <rect width="960" height="760" rx="48" fill="url(#paint0_linear)"/>
  <circle cx="722" cy="150" r="86" fill="#FFFFFF" fill-opacity="0.18"/>
  <circle cx="824" cy="222" r="34" fill="#FFFFFF" fill-opacity="0.14"/>
  <rect x="138" y="154" width="684" height="458" rx="40" fill="#F6FBFF"/>
  <rect x="196" y="226" width="568" height="304" rx="28" fill="#E3F2FB"/>
  <rect x="430" y="184" width="100" height="80" rx="16" fill="#0B4F8A"/>
  <rect x="462" y="198" width="36" height="52" rx="8" fill="#FFFFFF"/>
  <rect x="454" y="206" width="52" height="12" rx="6" fill="#FFFFFF"/>
  <rect x="248" y="278" width="96" height="82" rx="16" fill="#FFFFFF"/>
  <rect x="376" y="278" width="96" height="82" rx="16" fill="#FFFFFF"/>
  <rect x="504" y="278" width="96" height="82" rx="16" fill="#FFFFFF"/>
  <rect x="632" y="278" width="96" height="82" rx="16" fill="#FFFFFF"/>
  <rect x="248" y="392" width="96" height="82" rx="16" fill="#FFFFFF"/>
  <rect x="376" y="392" width="96" height="82" rx="16" fill="#FFFFFF"/>
  <rect x="504" y="392" width="96" height="82" rx="16" fill="#FFFFFF"/>
  <rect x="632" y="392" width="96" height="82" rx="16" fill="#FFFFFF"/>
  <path d="M134 610C134 594.536 146.536 582 162 582H798C813.464 582 826 594.536 826 610V612H134V610Z" fill="#C4DEEF"/>
  <rect x="258" y="536" width="106" height="40" rx="20" fill="#11979A"/>
  <rect x="398" y="536" width="170" height="40" rx="20" fill="#0B4F8A" fill-opacity="0.12"/>
  <rect x="148" y="486" width="208" height="92" rx="28" fill="#FFFFFF"/>
  <rect x="170" y="510" width="62" height="44" rx="14" fill="#0B4F8A" fill-opacity="0.1"/>
  <rect x="246" y="510" width="84" height="14" rx="7" fill="#0B4F8A" fill-opacity="0.18"/>
  <rect x="246" y="536" width="62" height="12" rx="6" fill="#0B4F8A" fill-opacity="0.1"/>
  <rect x="604" y="484" width="208" height="96" rx="28" fill="#FFFFFF"/>
  <rect x="630" y="510" width="68" height="18" rx="9" fill="#11979A"/>
  <rect x="630" y="540" width="128" height="12" rx="6" fill="#0B4F8A" fill-opacity="0.12"/>
  <circle cx="714" cy="280" r="18" fill="#11979A" fill-opacity="0.2"/>
  <circle cx="286" cy="300" r="18" fill="#11979A" fill-opacity="0.2"/>
  <defs>
    <linearGradient id="paint0_linear" x1="104" y1="76" x2="812" y2="698" gradientUnits="userSpaceOnUse">
      <stop stop-color="#E8F6FB"/>
      <stop offset="1" stop-color="#CFEAFA"/>
    </linearGradient>
  </defs>
</svg>
